<svg xmlns="http://www.w3.org/2000/svg" viewBox="0 0 320 170.82"><defs><style>.cls-1{fill:#0d72b9;}.cls-2{fill:#8cc540;}</style></defs><title>deha-software-logo</title><g id="Layer_2" data-name="Layer 2"><g id="OBJECTS"><path class="cls-1" d="M82.49,39.45v64h2q4.17,0,6,1.63a5.83,5.83,0,0,1,0,8.45q-1.8,1.64-6,1.63H74l-1.62-4.48c-2.67,1.56-7.09,4.37-10,5.17a34,34,0,0,1-9.06,1.2q-13.18,0-21.25-7.63a25.11,25.11,0,0,1-8.06-19A27.54,27.54,0,0,1,32.5,70.16a28.16,28.16,0,0,1,20.63-8.4,29.27,29.27,0,0,1,9,1.4,35.49,35.49,0,0,1,8.68,4.2V51.16h-2q-4.23,0-6-1.63a5.39,5.39,0,0,1-1.8-4.2,5.45,5.45,0,0,1,1.8-4.25q1.8-1.63,6-1.63ZM70.78,90.78A16.61,16.61,0,0,0,65.7,78.5a17.08,17.08,0,0,0-12.46-5,17,17,0,0,0-12.4,5,16.41,16.41,0,0,0-5.08,12.11,13.65,13.65,0,0,0,4.57,10.6q4.56,4.14,12.91,4.14t12.91-4.14A13.39,13.39,0,0,0,70.78,90.78Z"/><path class="cls-1" d="M184,39.45V66a30.85,30.85,0,0,1,7.4-3.22,27.46,27.46,0,0,1,7.57-1.06,26.9,26.9,0,0,1,10.79,2.05,18.54,18.54,0,0,1,7.86,6.49,18.93,18.93,0,0,1,3.11,11.17v22c3,0,4.92.28,5.83.85a5.65,5.65,0,0,1,2.74,5,5.43,5.43,0,0,1-1.77,4.2q-1.77,1.64-6,1.63H208.13q-4.17,0-6-1.63a5.46,5.46,0,0,1-1.8-4.26,5.6,5.6,0,0,1,2.75-5c.95-.6,2.89-.89,5.82-.85V82.27q0-4.51-2.05-6.34-2.69-2.46-7.94-2.46A15.19,15.19,0,0,0,192.05,75q-3,1.51-8.08,6.55v21.94c3,0,4.95.28,5.82.85a5.62,5.62,0,0,1,2.8,5,5.39,5.39,0,0,1-1.8,4.2q-1.8,1.64-6,1.63H171.45c-2.82,0-4.82-.54-6-1.63a5.46,5.46,0,0,1-1.8-4.26,5.57,5.57,0,0,1,2.8-5c.91-.6,2.85-.89,5.82-.85V51.16h-2c-2.82,0-4.82-.54-6-1.63a5.45,5.45,0,0,1-1.8-4.25,5.39,5.39,0,0,1,1.8-4.2c1.2-1.09,3.2-1.63,6-1.63Z"/><path class="cls-1" d="M280.06,115.18l-1.62-4.37c-2.94,1.57-7.8,4.36-11.34,5.14a45.25,45.25,0,0,1-9.66,1.17q-9.42,0-15.31-5t-5.89-11.05q0-7.38,7.52-13.69t20.77-6.31a77.23,77.23,0,0,1,12.28,1.14v-2.8a5.07,5.07,0,0,0-2.26-4.28q-2.25-1.66-8.6-1.66a58.72,58.72,0,0,0-13.48,2.06,22.39,22.39,0,0,1-4.8.74,5.3,5.3,0,0,1-4-1.69,5.92,5.92,0,0,1-1.63-4.31,5.45,5.45,0,0,1,.57-2.57,4.62,4.62,0,0,1,1.6-1.74,18.88,18.88,0,0,1,4.29-1.57,81.41,81.41,0,0,1,8.85-1.92,53.54,53.54,0,0,1,8.17-.71q10.92,0,16.95,4.71a15.49,15.49,0,0,1,6,12.89v24.11h2q4.23,0,6,1.63a5.45,5.45,0,0,1,1.8,4.25,5.39,5.39,0,0,1-1.8,4.2q-1.8,1.64-6,1.63Zm-3.25-21a68.37,68.37,0,0,0-13-1.37,21.29,21.29,0,0,0-12.28,3.49c-2.14,1.48-3.2,3-3.2,4.51a3.09,3.09,0,0,0,1.54,2.68,14,14,0,0,0,7.83,1.89,32.53,32.53,0,0,0,9.57-1.66,34.81,34.81,0,0,0,9.51-4.51Z"/><path class="cls-1" d="M127.31,117.11a36.49,36.49,0,0,1-18.18-4.51c-7.63-4.44-12-11.68-12.52-20.93A16,16,0,0,1,98,83.31a5.7,5.7,0,0,1,8.46-2.61s8,5.12,21.16,4.32c7.6-.47,12.64-2.6,15.51-4.28,0-4.19-7.33-9.67-16.82-9.08a25.8,25.8,0,0,0-8.1,1.92,5.69,5.69,0,0,1-4.82-10.3,36,36,0,0,1,12.22-3c18.26-1.13,30,13.16,30,20.52,0,2.06.13,4.11-1.28,5.61-.85.9-8.82,8.87-26,9.93a53.11,53.11,0,0,1-20-2.46,13.13,13.13,0,0,0,6.5,8.87c3.73,2.17,9,3.22,14.36,2.9,12.8-.79,18.12-6.49,18.34-6.73a5.65,5.65,0,0,1,8-.62,5.72,5.72,0,0,1,.61,8c-.83,1-8.61,9.57-26.24,10.65C129.16,117.08,128.28,117.11,127.31,117.11Z"/><path class="cls-2" d="M123.29,51.82h-.13c-1.85,0-3-1.22-4.09-2.38L96.48,28.56a5.85,5.85,0,0,1,.41-8.16,5.68,5.68,0,0,1,8,.35l18.56,16.14,34.9-35.2a5.68,5.68,0,1,1,8.07,8l-39.13,40C126.26,50.72,124.81,51.82,123.29,51.82Z"/><path class="cls-1" d="M79,144.55A6.7,6.7,0,0,0,76.77,143a7.34,7.34,0,0,0-5.72,0,6.56,6.56,0,0,0-2.22,1.58,7.5,7.5,0,0,0-1.46,2.36,8.31,8.31,0,0,0-.52,2.92,8.21,8.21,0,0,0,.52,2.91,7.39,7.39,0,0,0,1.46,2.36,6.73,6.73,0,0,0,2.22,1.59,7.46,7.46,0,0,0,5.72,0A6.88,6.88,0,0,0,79,155.1a7.19,7.19,0,0,0,1.45-2.36,8,8,0,0,0,.52-2.91,8.09,8.09,0,0,0-.52-2.92A7.3,7.3,0,0,0,79,144.55Z"/><path class="cls-1" d="M213.63,38.82a5.5,5.5,0,1,0,0,11H308v79H12v-79H36.49a5.5,5.5,0,1,0,0-11H0v132H320v-132ZM83.62,154a9.83,9.83,0,0,1-2.19,3.36,10.24,10.24,0,0,1-3.32,2.2,11.56,11.56,0,0,1-8.4,0,10.35,10.35,0,0,1-3.32-2.2A10,10,0,0,1,64.2,154a11.67,11.67,0,0,1,0-8.39,10,10,0,0,1,2.19-3.35,10.24,10.24,0,0,1,3.32-2.2,11.43,11.43,0,0,1,8.4,0,10.24,10.24,0,0,1,3.32,2.2,9.69,9.69,0,0,1,2.19,3.35,11.67,11.67,0,0,1,0,8.39Zm-48.3.37c.14,1.61,1.58,3,4.29,3,2.51,0,3.89-1.15,3.89-2.86,0-1.45-1-2.19-3.18-2.68l-3.2-.74c-2.83-.64-5.23-2.24-5.23-5.71,0-4,3.45-6.25,7.7-6.25,4.44,0,7.62,2.42,7.68,6.13H43.42c-.13-1.54-1.36-2.92-3.84-2.92-2.2,0-3.61,1-3.61,2.73,0,1.24,1,2.08,2.83,2.49l3.21.74c3.06.67,5.56,2.14,5.56,5.83,0,4.06-3.21,6.48-8.19,6.48-6,0-8-3.39-8-6.27Zm66.24,5.88V139.61h13.17V143h-9.08v5.77h8.29v3.3h-8.29v8.22Zm36.28,0V143H132v-3.42H147.8V143h-5.87v17.24Zm31.88,0-5.47-20.66h4.35l3.21,14.74H172l3.66-14.74h3.54l3.65,14.74H183l3.19-14.74h4.34l-5.46,20.66h-3.77L177.47,146h-.15l-3.83,14.32Zm35.29,0L212,139.61h4.8l6.88,20.66h-4.34L217.67,155h-6.89l-1.63,5.32Zm9.15-16.71-2.53,8.35h5.22l-2.51-8.35Zm42.5,2.58a6,6,0,0,1-3.77,5.8l4.16,8.33h-4.57l-3.62-7.71h-3.67v7.71h-4V139.61h8.25C254.31,139.61,256.66,142.5,256.66,146.14Zm-7.9,3.35c2.3,0,3.68-1.14,3.68-3.27s-1.52-3.41-3.62-3.41h-3.63v6.68Zm39.87,10.78H275.32V139.61h13.31V143h-9.25v5.3h8.69v3.13h-8.69v5.54h9.25Z"/></g></g></svg>